<svg width="839" height="227" viewBox="0 0 839 227" fill="none" xmlns="http://www.w3.org/2000/svg">
<g clip-path="url(#clip0_1_42)">
<path d="M14.8619 126.687L48.4967 93.0523L64.8628 76.6861L48.4967 60.32L14.8619 26.6852L0 44.5556L32.1306 76.6861L0 108.817L14.8619 126.687Z" fill="#42E886"/>
<path d="M91.157 131.802V5.44534H171.965L169.528 31.8899H120.791V55.1153H164.293L161.856 81.3794H120.791V131.802H91.157Z" fill="white"/>
<path d="M183.788 131.801V2.43686H211.346V131.801H183.788Z" fill="white"/>
<path d="M226.9 16.5166V15.0424C226.9 5.01413 231.914 0 241.942 0C251.97 0 256.984 5.01413 256.984 15.0424V16.5466C256.984 26.5749 251.97 31.589 241.942 31.589C231.914 31.589 226.9 26.5649 226.9 16.5166ZM228.223 131.802V40.8852H255.721V131.802H228.223Z" fill="white"/>
<path d="M267.213 131.802C275.499 115.942 285.163 100.841 296.095 86.6743C284.779 72.5257 275.147 57.109 267.394 40.7348H297.027C300.172 49.8819 304.73 58.4801 310.535 66.2167H311.288C316.73 58.2891 321.195 49.7332 324.585 40.7348H353.286C345.782 56.7721 336.713 72.029 326.21 86.2832C337.721 100.557 348.073 115.728 357.167 131.651H326.27C321.889 123.126 317.007 114.868 311.649 106.921H310.896C305.998 114.916 301.636 123.228 297.84 131.802H267.213Z" fill="white"/>
<path d="M371.638 131.802V40.8852H386.078L387.402 50.8132C391.13 46.9002 395.585 43.7527 400.519 41.5471C405.555 39.1403 411.063 37.8865 416.645 37.8768C428.017 37.8768 436.039 42.2491 440.712 50.9937C444.759 46.833 449.601 43.5278 454.95 41.2745C460.299 39.0212 466.046 37.8658 471.85 37.8768C491.465 37.8768 501.273 49.1285 501.273 71.6319V131.802H484.215V75.0014C484.215 67.3799 482.961 62.0649 480.454 59.0565C478.749 57.2755 476.658 55.9078 474.343 55.0579C472.028 54.208 469.55 53.8984 467.097 54.1526C462.725 54.2668 458.431 55.3325 454.513 57.2758C450.596 59.219 447.149 61.9929 444.413 65.4043C444.654 67.6607 444.774 71.4213 444.774 76.4756V131.802H427.716V75.934C428.101 70.2738 427.066 64.607 424.707 59.4476C422.571 55.8073 418.389 54.1526 412.162 54.1526C407.789 54.2509 403.505 55.407 399.677 57.5221C395.486 59.652 391.763 62.5978 388.726 66.1866V131.802H371.638Z" fill="white"/>
<path d="M520.467 86.8247V86.4336C520.467 72.3941 523.897 60.7713 530.756 51.5654C537.616 42.3594 547.804 37.7965 561.322 37.8768C586.714 37.8768 599.41 54.1226 599.41 86.6142C599.41 89.6226 599.41 91.879 599.199 93.3832H538.338C539.721 111.254 548.596 120.189 564.963 120.189C574.253 120.308 583.47 118.516 592.039 114.924L593.543 128.823C584.43 132.983 574.497 135.039 564.481 134.84C535.139 134.82 520.467 118.815 520.467 86.8247ZM538.277 80.6273H581.78C581.138 61.7741 574.259 52.3375 561.142 52.3175C557.876 52.0833 554.604 52.6807 551.631 54.0539C548.659 55.427 546.083 57.5311 544.144 60.1696C540.148 66.2372 538.063 73.3629 538.157 80.6273H538.277Z" fill="white"/>
<path d="M615.385 88.329V87.2459C615.385 72.384 618.855 60.4203 625.794 51.3547C632.734 42.2892 642.581 37.7564 655.337 37.7564C663.485 37.5952 671.504 39.8115 678.412 44.1344V2.43686H695.651V94.3158C695.651 103.542 695.771 116.037 696.012 131.801H681.601L680.458 123.949H680.278C676.719 127.477 672.49 130.256 667.839 132.122C663.189 133.987 658.211 134.901 653.201 134.81C647.986 134.991 642.799 133.97 638.041 131.826C633.284 129.682 629.083 126.472 625.764 122.445C618.865 114.202 615.405 102.83 615.385 88.329ZM633.225 86.6141C632.815 94.9223 634.833 103.17 639.031 110.351C640.968 113.322 643.661 115.725 646.833 117.311C650.006 118.897 653.543 119.61 657.082 119.376C661.099 119.353 665.069 118.509 668.748 116.894C672.426 115.28 675.736 112.931 678.473 109.99V59.9891C673.128 55.5061 666.309 53.1687 659.339 53.4306C641.91 53.4306 633.205 64.4918 633.225 86.6141Z" fill="white"/>
<path d="M719.027 14.0496V12.756C719.027 5.11441 722.456 1.32373 729.346 1.32373C736.235 1.32373 739.093 5.11441 739.093 12.756V14.0496C739.093 21.5708 735.844 25.3013 729.346 25.3013C722.848 25.3013 719.027 21.5708 719.027 14.0496ZM720.531 131.802V40.8853H737.589V131.802H720.531Z" fill="white"/>
<path d="M757.535 107.613C757.535 85.2503 774.654 74.0688 808.89 74.0688H813.583V70.4887C813.583 63.509 812.019 58.6955 808.89 56.048C805.761 53.4005 800.697 52.157 793.697 52.3175C784.273 52.5726 774.983 54.6144 766.32 58.3344L763.703 44.2848C773.953 40.1392 784.897 37.975 795.954 37.9069C807.847 37.9069 816.602 40.2836 822.218 45.037C827.834 49.7904 830.642 58.0436 830.642 69.7968V115.526C830.418 117.756 830.847 120.003 831.875 121.994C832.687 123.077 834.462 123.588 837.2 123.588V133.516C834.305 134.537 831.24 134.987 828.175 134.84C820.292 134.84 815.81 131.079 814.667 123.588C810.906 127.318 806.423 130.24 801.493 132.175C796.563 134.11 791.289 135.017 785.996 134.84C778.516 135.119 771.211 132.537 765.568 127.62C762.843 125.079 760.711 121.969 759.323 118.511C757.935 115.054 757.325 111.333 757.535 107.613ZM775.346 105.929C775.255 107.866 775.554 109.801 776.226 111.621C776.898 113.44 777.928 115.105 779.257 116.518C780.819 117.949 782.659 119.045 784.661 119.739C786.663 120.432 788.786 120.708 790.9 120.55C795.169 120.494 799.382 119.568 803.282 117.83C807.182 116.092 810.687 113.578 813.583 110.441V87.0053H810.786C806.524 86.9658 802.264 87.1868 798.03 87.6671C794.269 88.1169 790.561 88.9331 786.958 90.104C783.533 91.0665 780.507 93.1015 778.324 95.9104C776.263 98.8345 775.217 102.353 775.346 105.929Z" fill="white"/>
</g>
<path d="M91.2731 167.123H102.145C110.933 167.123 117.964 168.359 117.964 178.19C117.964 182.226 116.272 186.067 112.04 187.499V187.629C117.313 188.475 120.959 192.446 120.959 198.305C120.959 209.763 112.561 211 103.837 211H91.2731V167.123ZM97.718 172.916V185.351H103.317C108.785 185.351 111.389 183.658 111.389 178.775C111.389 174.739 109.306 172.916 103.642 172.916H97.718ZM97.718 191.144V205.206H104.033C110.217 205.206 114.253 204.62 114.253 198.045C114.253 192.707 110.152 191.144 104.944 191.144H97.718ZM126.435 195.376V195.246C126.435 186.132 130.797 178.385 140.627 178.385C149.676 178.385 153.842 184.309 153.842 195.311C153.842 196.092 153.842 196.873 153.777 197.654H132.685C133.141 203.579 135.94 206.964 141.929 206.964C145.184 206.964 148.96 206.183 151.369 205.141L151.889 209.958C149.025 211.326 145.314 212.042 141.799 212.042C131.643 212.042 126.435 206.508 126.435 195.376ZM132.62 193.228H147.723C147.528 187.369 145.705 183.398 140.562 183.398C135.028 183.398 132.815 187.889 132.62 193.228ZM159.43 195.441V195.181C159.43 183.918 165.419 178.385 174.533 178.385C178.049 178.385 181.434 179.296 183.582 180.468L182.996 185.676C181.239 184.634 178.114 183.528 175.119 183.528C168.74 183.528 165.615 187.304 165.615 195.376C165.615 203.253 168.479 206.899 174.924 206.899C177.658 206.899 180.653 206.183 182.996 205.141L183.517 210.089C180.913 211.326 177.528 212.042 174.338 212.042C169.325 212.042 165.615 210.609 163.141 207.875C160.602 205.011 159.43 200.779 159.43 195.441ZM191.345 185.481L190.434 180.598C193.558 179.361 198.05 178.385 201.631 178.385C209.443 178.385 213.674 180.924 213.674 189.452V205.336C213.674 207.485 213.935 208.136 215.953 208.136V211.586C215.302 211.846 213.935 212.042 212.828 212.042C210.419 212.042 208.531 210.805 208.141 208.136C205.732 210.544 202.282 212.042 198.181 212.042C192.712 212.042 188.285 208.722 188.285 202.602C188.285 195.246 193.624 190.949 206.123 190.949H207.75V189.712C207.75 187.108 207.425 185.806 206.123 184.7C205.016 183.788 203.128 183.398 200.85 183.398C197.79 183.398 194.275 184.309 191.345 185.481ZM207.75 195.441H206.774C200.98 195.441 194.47 196.157 194.47 202.016C194.47 204.881 196.162 207.094 199.873 207.094C203.128 207.094 206.123 205.401 207.75 203.579V195.441ZM221.692 179.426H227.616V197.199C227.616 200.584 227.747 202.081 228.267 203.579C229.179 206.183 231.783 207.029 234.777 207.029C237.837 207.029 240.376 206.183 241.287 203.579C241.808 202.081 241.938 200.584 241.938 197.199V179.426H247.863V197.98C247.863 208.266 244.412 212.042 234.777 212.042C225.208 212.042 221.692 208.266 221.692 197.98V179.426ZM274.201 179.752L273.68 184.765C271.662 183.918 268.862 183.332 266.714 183.332C262.157 183.332 260.269 185.025 260.269 187.564C260.269 190.428 262.483 191.275 265.672 192.316L267.756 192.967C273.354 194.66 276.219 196.938 276.219 202.407C276.219 209.112 271.271 212.042 264.045 212.042C260.855 212.042 257.144 211.26 254.605 210.219L255.061 205.271C257.6 206.378 261.115 207.224 263.524 207.224C267.625 207.224 270.295 206.248 270.295 202.863C270.295 200.128 269.058 199.152 264.956 197.98L262.873 197.329C258.316 196.027 254.345 193.618 254.345 187.694C254.345 181.705 259.358 178.385 266.193 178.385C268.862 178.385 271.857 178.906 274.201 179.752ZM281.175 195.376V195.246C281.175 186.132 285.537 178.385 295.367 178.385C304.416 178.385 308.582 184.309 308.582 195.311C308.582 196.092 308.582 196.873 308.517 197.654H287.424C287.88 203.579 290.679 206.964 296.669 206.964C299.924 206.964 303.699 206.183 306.108 205.141L306.629 209.958C303.765 211.326 300.054 212.042 296.538 212.042C286.383 212.042 281.175 206.508 281.175 195.376ZM287.359 193.228H302.463C302.267 187.369 300.444 183.398 295.302 183.398C289.768 183.398 287.555 187.889 287.359 193.228ZM328.405 167.123H354.054L353.664 173.047H334.85V185.481H351.385V191.47H334.85V205.076H353.534V211H328.405V167.123ZM358.451 179.426H365.351C367.174 182.942 369.453 186.913 371.601 190.559C373.944 186.848 376.158 183.007 378.046 179.426H384.491C381.822 184.244 378.046 190.233 374.921 195.116L385.467 211H378.111L371.406 199.803L364.765 211H357.995L368.216 195.181C365.026 190.298 361.055 183.918 358.451 179.426ZM390.424 179.426H395.372L395.828 182.616C398.757 179.752 402.403 178.385 405.723 178.385C413.274 178.385 418.417 184.179 418.417 194.399V194.79C418.417 204.685 413.86 212.042 404.616 212.042C401.687 212.042 398.822 211.065 396.348 209.568V223.629H390.424V179.426ZM396.348 187.629V204.36C398.236 205.727 401.036 206.638 403.64 206.638C410.215 206.638 412.233 201.235 412.233 195.116C412.233 190.363 410.866 183.983 404.486 183.983C401.166 183.983 398.236 185.676 396.348 187.629ZM424.026 195.376V195.246C424.026 186.132 428.388 178.385 438.218 178.385C447.267 178.385 451.433 184.309 451.433 195.311C451.433 196.092 451.433 196.873 451.368 197.654H430.276C430.731 203.579 433.531 206.964 439.52 206.964C442.775 206.964 446.551 206.183 448.959 205.141L449.48 209.958C446.616 211.326 442.905 212.042 439.39 212.042C429.234 212.042 424.026 206.508 424.026 195.376ZM430.211 193.228H445.314C445.119 187.369 443.296 183.398 438.153 183.398C432.619 183.398 430.406 187.889 430.211 193.228ZM458.258 179.426H463.401C463.922 183.788 463.857 183.788 463.922 183.788C466.07 181.054 469.651 178.906 474.077 178.71C474.077 179.687 474.012 183.723 474.012 184.7C469.911 184.765 466.461 186.392 464.182 188.671V211H458.258V179.426ZM479.819 179.426H485.743V211H479.819V179.426ZM479.298 170.117V169.661C479.298 167.188 480.209 165.69 482.879 165.69C485.352 165.69 486.264 167.188 486.264 169.661V170.117C486.264 172.461 485.352 174.023 482.879 174.023C480.209 174.023 479.298 172.461 479.298 170.117ZM492.941 195.376V195.246C492.941 186.132 497.302 178.385 507.132 178.385C516.181 178.385 520.348 184.309 520.348 195.311C520.348 196.092 520.348 196.873 520.283 197.654H499.19C499.646 203.579 502.445 206.964 508.434 206.964C511.689 206.964 515.465 206.183 517.874 205.141L518.395 209.958C515.53 211.326 511.82 212.042 508.304 212.042C498.149 212.042 492.941 206.508 492.941 195.376ZM499.125 193.228H514.228C514.033 187.369 512.21 183.398 507.067 183.398C501.534 183.398 499.32 187.889 499.125 193.228ZM527.173 179.426H532.315L532.771 183.072C535.375 180.403 539.346 178.385 543.838 178.385C547.223 178.385 549.762 179.296 551.455 181.054C553.408 183.007 554.124 185.806 554.124 190.493V211H548.2V191.405C548.2 188.41 547.874 186.718 546.833 185.481C545.856 184.439 544.359 183.918 542.211 183.918C539.151 183.918 535.505 185.481 533.097 188.15V211H527.173V179.426ZM560.901 195.441V195.181C560.901 183.918 566.891 178.385 576.005 178.385C579.52 178.385 582.905 179.296 585.054 180.468L584.468 185.676C582.71 184.634 579.585 183.528 576.591 183.528C570.211 183.528 567.086 187.304 567.086 195.376C567.086 203.253 569.95 206.899 576.395 206.899C579.129 206.899 582.124 206.183 584.468 205.141L584.988 210.089C582.384 211.326 578.999 212.042 575.809 212.042C570.797 212.042 567.086 210.609 564.612 207.875C562.073 205.011 560.901 200.779 560.901 195.441ZM590.082 195.376V195.246C590.082 186.132 594.444 178.385 604.274 178.385C613.323 178.385 617.489 184.309 617.489 195.311C617.489 196.092 617.489 196.873 617.424 197.654H596.332C596.787 203.579 599.587 206.964 605.576 206.964C608.831 206.964 612.607 206.183 615.015 205.141L615.536 209.958C612.672 211.326 608.961 212.042 605.446 212.042C595.29 212.042 590.082 206.508 590.082 195.376ZM596.267 193.228H611.37C611.174 187.369 609.352 183.398 604.209 183.398C598.675 183.398 596.462 187.889 596.267 193.228ZM638.94 167.123H644.473C648.639 175.911 655.084 189.973 658.274 197.459C661.464 190.103 668.69 174.544 672.141 167.123H677.544C678.585 180.663 679.627 198.371 679.953 211H673.638C673.573 208.526 672.661 182.616 672.206 179.622C668.755 187.434 663.808 198.045 660.162 206.573H656.191C652.676 198.501 648.444 189.126 644.148 179.622C644.148 179.622 644.148 179.622 644.082 179.622C643.497 191.926 642.911 203.253 642.715 211H636.466C636.791 198.696 637.898 180.533 638.94 167.123ZM689.894 185.481L688.983 180.598C692.107 179.361 696.599 178.385 700.18 178.385C707.992 178.385 712.223 180.924 712.223 189.452V205.336C712.223 207.485 712.484 208.136 714.502 208.136V211.586C713.851 211.846 712.484 212.042 711.377 212.042C708.968 212.042 707.08 210.805 706.69 208.136C704.281 210.544 700.831 212.042 696.73 212.042C691.261 212.042 686.834 208.722 686.834 202.602C686.834 195.246 692.173 190.949 704.672 190.949H706.299V189.712C706.299 187.108 705.974 185.806 704.672 184.7C703.565 183.788 701.677 183.398 699.399 183.398C696.339 183.398 692.824 184.309 689.894 185.481ZM706.299 195.441H705.323C699.529 195.441 693.019 196.157 693.019 202.016C693.019 204.881 694.711 207.094 698.422 207.094C701.677 207.094 704.672 205.401 706.299 203.579V195.441ZM722.008 170.833L727.932 169.987V179.426H735.679L735.354 184.244H727.932V200.779C727.932 206.052 729.299 207.224 732.88 207.224C733.856 207.224 735.028 207.094 735.744 206.964L735.874 211.651C734.703 211.911 732.88 212.042 732.099 212.042C724.222 212.042 722.008 208.526 722.008 201.365V184.244H717.321V179.426H722.008V170.833ZM744.132 170.833L750.056 169.987V179.426H757.803L757.477 184.244H750.056V200.779C750.056 206.052 751.423 207.224 755.004 207.224C755.98 207.224 757.152 207.094 757.868 206.964L757.998 211.651C756.826 211.911 755.004 212.042 754.222 212.042C746.345 212.042 744.132 208.526 744.132 201.365V184.244H739.445V179.426H744.132V170.833ZM761.86 195.376V195.246C761.86 186.132 766.221 178.385 776.051 178.385C785.1 178.385 789.267 184.309 789.267 195.311C789.267 196.092 789.267 196.873 789.202 197.654H768.109C768.565 203.579 771.364 206.964 777.353 206.964C780.608 206.964 784.384 206.183 786.793 205.141L787.314 209.958C784.449 211.326 780.739 212.042 777.223 212.042C767.068 212.042 761.86 206.508 761.86 195.376ZM768.044 193.228H783.147C782.952 187.369 781.129 183.398 775.986 183.398C770.453 183.398 768.239 187.889 768.044 193.228ZM796.091 179.426H801.234C801.755 183.788 801.69 183.788 801.755 183.788C803.903 181.054 807.484 178.906 811.911 178.71C811.911 179.687 811.846 183.723 811.846 184.7C807.744 184.765 804.294 186.392 802.016 188.671V211H796.091V179.426ZM836.324 179.752L835.803 184.765C833.785 183.918 830.986 183.332 828.837 183.332C824.28 183.332 822.392 185.025 822.392 187.564C822.392 190.428 824.606 191.275 827.796 192.316L829.879 192.967C835.477 194.66 838.342 196.938 838.342 202.407C838.342 209.112 833.394 212.042 826.168 212.042C822.978 212.042 819.268 211.26 816.729 210.219L817.184 205.271C819.723 206.378 823.239 207.224 825.647 207.224C829.749 207.224 832.418 206.248 832.418 202.863C832.418 200.128 831.181 199.152 827.08 197.98L824.996 197.329C820.439 196.027 816.468 193.618 816.468 187.694C816.468 181.705 821.481 178.385 828.316 178.385C830.986 178.385 833.98 178.906 836.324 179.752Z" fill="white"/>
<defs>
<clipPath id="clip0_1_42">
<rect width="837.2" height="134.81" fill="white"/>
</clipPath>
</defs>
</svg>
