<svg width="49" height="46" viewBox="0 0 49 46" fill="none" xmlns="http://www.w3.org/2000/svg">
<path d="M15.3333 39.5931V27.2597C15.3333 26.1695 14.9002 25.1237 14.1293 24.3528C13.3582 23.5818 12.3126 23.1487 11.2222 23.1487H7.11115C6.02077 23.1487 4.97513 23.5818 4.20407 24.3528C3.43314 25.1237 3 26.1695 3 27.2597V39.5931C3 40.6835 3.43314 41.7291 4.20407 42.5002C4.97513 43.2711 6.02077 43.7042 7.11115 43.7042H11.2222C12.3126 43.7042 13.3582 43.2711 14.1293 42.5002C14.9002 41.7291 15.3333 40.6835 15.3333 39.5931ZM15.3333 39.5931V19.0376C15.3333 17.9472 15.7665 16.9015 16.5374 16.1306C17.3085 15.3595 18.3541 14.9264 19.4445 14.9264H23.5555C24.6459 14.9264 25.6915 15.3595 26.4626 16.1306C27.2335 16.9015 27.6667 17.9472 27.6667 19.0376V39.5931M15.3333 39.5931C15.3333 40.6835 15.7665 41.7291 16.5374 42.5002C17.3085 43.2711 18.3541 43.7042 19.4445 43.7042H23.5555C24.6459 43.7042 25.6915 43.2711 26.4626 42.5002C27.2335 41.7291 27.6667 40.6835 27.6667 39.5931M27.6667 39.5931V10.8154C27.6667 9.72499 28.0998 8.67935 28.8707 7.90829C29.6418 7.13735 30.6874 6.70422 31.7778 6.70422H35.8889C36.9792 6.70422 38.0249 7.13735 38.7959 7.90829C39.5669 8.67935 40 9.72499 40 10.8154V39.5931C40 40.6835 39.5669 41.7291 38.7959 42.5002C38.0249 43.2711 36.9792 43.7042 35.8889 43.7042H31.7778C30.6874 43.7042 29.6418 43.2711 28.8707 42.5002C28.0998 41.7291 27.6667 40.6835 27.6667 39.5931Z" stroke="#4B84EE" stroke-width="2" stroke-linecap="round" stroke-linejoin="round"/>
<path d="M13.5959 1L20.1619 1.92282M20.1619 1.92282L19.2391 8.48884M20.1619 1.92282L3.31201 14.62" stroke="#4B84EE" stroke-width="2" stroke-linecap="round" stroke-linejoin="round"/>
</svg>
