<svg width="63" height="45" viewBox="0 0 63 45" fill="none" xmlns="http://www.w3.org/2000/svg">
<g clip-path="url(#clip0_2518_1550)">
<mask id="mask0_2518_1550" style="mask-type:luminance" maskUnits="userSpaceOnUse" x="3" y="0" width="57" height="45">
<path d="M59.25 0H3V45H59.25V0Z" fill="white"/>
</mask>
<g mask="url(#mask0_2518_1550)">
<path d="M40.8103 7.57491C39.5874 6.79161 38.1548 6.375 36.6973 6.375C34.9534 6.375 33.2564 6.97498 31.8952 8.07165L31.8944 8.07225L23.3881 14.9617L23.3872 14.9624C22.2824 15.8545 22.0709 17.4599 22.9064 18.6035L22.9081 18.6058C23.7919 19.8254 25.513 20.0662 26.6997 19.1402L26.7008 19.1393L35.4283 12.3542L35.4306 12.3524C36.3701 11.6276 37.717 11.7886 38.456 12.729C39.2005 13.6767 39.0177 15.0257 38.0835 15.7597L38.0796 15.7627L36.9439 16.643L47.25 26.1335V11.6995L47.191 11.6617L40.8103 7.57491ZM40.8103 7.57491L41.1723 7.00972M19.4182 21.1486C17.2322 18.1453 17.783 13.9505 20.669 11.6161L29.3451 7.00972C28.7952 6.88518 25.79 6.38379 25.2188 6.38379H25.2148C23.7154 6.3758 22.2523 6.82212 20.9933 7.65583L20.9923 7.65651L15 11.6514V30.1875H16.7285H17.0193L17.234 30.3835L25.2675 37.7138C26.6831 39.0066 28.8707 38.9068 30.1653 37.4911C30.5654 37.0467 30.8327 36.5322 30.9699 35.9981L31.2811 34.7857L32.2034 35.632L33.6976 37.0032C35.1063 38.2963 37.3039 38.2022 38.597 36.7935C38.9204 36.4413 39.16 36.0287 39.313 35.5991L39.6362 34.6909L40.437 35.2275C41.8394 36.1673 43.7469 35.9707 44.925 34.6842C46.2182 33.2755 46.1242 31.0781 44.7155 29.7849L33.388 19.4028L29.3451 22.5464C26.2417 24.9698 21.7415 24.3383 19.4182 21.1486ZM3.75 12.6562C3.75 12.297 4.04703 12 4.40625 12H10.6875V30.9375C10.6875 32.079 9.76645 33 8.625 33H5.8125C4.67105 33 3.75 32.079 3.75 30.9375V12.6562ZM8.74345 28.0065C8.33907 27.6022 7.79062 27.375 7.21875 27.375C6.64688 27.375 6.09843 27.6022 5.69405 28.0065C5.28968 28.4109 5.0625 28.9594 5.0625 29.5312C5.0625 30.1031 5.28968 30.6516 5.69405 31.056C6.09843 31.4603 6.64688 31.6875 7.21875 31.6875C7.79062 31.6875 8.33907 31.4603 8.74345 31.056C9.14782 30.6516 9.375 30.1031 9.375 29.5312C9.375 28.9594 9.14782 28.4109 8.74345 28.0065ZM51.5625 30.9375V12H57.8438C58.203 12 58.5 12.297 58.5 12.6562V30.9375C58.5 32.079 57.5789 33 56.4375 33H53.625C52.4836 33 51.5625 32.079 51.5625 30.9375ZM53.5065 28.0065C53.1022 28.4109 52.875 28.9594 52.875 29.5312C52.875 30.1031 53.1022 30.6516 53.5065 31.056C53.9109 31.4603 54.4594 31.6875 55.0312 31.6875C55.6031 31.6875 56.1516 31.4603 56.556 31.056C56.9603 30.6516 57.1875 30.1031 57.1875 29.5312C57.1875 28.9594 56.9603 28.4109 56.556 28.0065C56.1516 27.6022 55.6031 27.375 55.0312 27.375C54.4594 27.375 53.9109 27.6022 53.5065 28.0065Z" stroke="#4B84EE" stroke-width="1.5"/>
</g>
</g>
<defs>
<clipPath id="clip0_2518_1550">
<rect width="57" height="45" fill="white" transform="translate(3)"/>
</clipPath>
</defs>
</svg>
