<svg width="49" height="45" viewBox="0 0 49 45" fill="none" xmlns="http://www.w3.org/2000/svg">
<path d="M46.4949 9.52362L46.6664 9.79507C48.7528 13.4801 46.6295 18.3156 42.4626 18.8734C42.1367 18.914 41.8177 18.9375 41.4952 18.9375C39.4262 18.9375 37.5932 18.035 36.3197 16.6342L35.763 16.0218L35.2082 16.6359C33.9448 18.0345 32.113 18.9375 30.0343 18.9375C27.964 18.9375 26.1235 18.0341 24.8603 16.6359L24.3038 16.0199L23.7473 16.6359C22.4842 18.0341 20.6437 18.9375 18.5734 18.9375C16.503 18.9375 14.6626 18.0341 13.3994 16.6359L12.8429 16.0199L12.2864 16.6359C11.0232 18.0341 9.18276 18.9375 7.11242 18.9375C6.79858 18.9375 6.47112 18.914 6.14586 18.8735C1.89399 18.2939 -0.223097 13.2308 2.12117 9.52412C2.1212 9.52406 2.12124 9.52401 2.12127 9.52395L7.16609 1.55244L7.16701 1.55098C7.47627 1.0598 8.03493 0.75 8.63292 0.75H39.9923C40.5903 0.75 41.149 1.0598 41.4582 1.55098L41.4588 1.55194L46.4949 9.52362ZM41.4864 23.25C41.9889 23.25 42.4799 23.2147 42.9588 23.1533H42.9625L43.0057 23.1483C43.0884 23.1387 43.1698 23.1279 43.2501 23.1162V33.75V39.375C43.2501 42.0633 41.0634 44.25 38.3751 44.25H10.2501C7.56179 44.25 5.37511 42.0633 5.37511 39.375V33.75V23.1157C5.4407 23.126 5.50608 23.1359 5.5712 23.1454L5.62521 23.1533H5.64005C6.12015 23.2148 6.61932 23.25 7.1212 23.25C7.93621 23.25 8.73345 23.1628 9.50011 22.9976V33.75V34.5H10.2501H38.3751H39.1251V33.75V23.0022C39.883 23.1632 40.6733 23.25 41.4864 23.25Z" stroke="#4B84EE" stroke-width="1.5"/>
</svg>
