<svg width="50" height="50" viewBox="0 0 50 50" fill="none" xmlns="http://www.w3.org/2000/svg">
<path d="M29.1666 20.8333L24.9999 22.9167M24.9999 22.9167L20.8333 20.8333M24.9999 22.9167V28.125M41.6666 14.5833L37.4999 16.6667M41.6666 14.5833L37.4999 12.5M41.6666 14.5833V19.7917M29.1666 8.33333L24.9999 6.25L20.8333 8.33333M8.33325 14.5833L12.4999 12.5M8.33325 14.5833L12.4999 16.6667M8.33325 14.5833V19.7917M24.9999 43.75L20.8333 41.6667M24.9999 43.75L29.1666 41.6667M24.9999 43.75V38.5417M12.4999 37.5L8.33325 35.4167V30.2083M37.4999 37.5L41.6666 35.4167V30.2083" stroke="#42E886" stroke-width="2" stroke-linecap="round" stroke-linejoin="round"/>
</svg>
