<svg width="41" height="41" viewBox="0 0 41 41" fill="none" xmlns="http://www.w3.org/2000/svg">
<g clip-path="url(#clip0_760_25)">
<path d="M7.94615 4.41553L3.53076 6.78091H7.94615V4.41553Z" fill="#4B4B4A"/>
<path d="M20.5 41C31.8223 41 41 31.8223 41 20.5C41 9.17769 31.8223 0 20.5 0C9.17769 0 0 9.17769 0 20.5C0 31.8223 9.17769 41 20.5 41Z" fill="url(#paint0_linear_760_25)"/>
<path d="M20.4998 38.6345C30.5149 38.6345 38.6345 30.5149 38.6345 20.4998C38.6345 10.4848 30.5149 2.36523 20.4998 2.36523C10.4848 2.36523 2.36523 10.4848 2.36523 20.4998C2.36523 30.5149 10.4848 38.6345 20.4998 38.6345Z" fill="#F9F9FA"/>
<path d="M29.6463 29.646H11.354V30.1191H29.6463V29.646Z" fill="url(#paint1_linear_760_25)"/>
<path d="M8.01878 28.0897C7.88475 28.0897 7.75544 28.0692 7.63244 28.0298C7.50944 27.9872 7.41325 27.9336 7.34229 27.8689L7.43532 27.6718C7.50313 27.7302 7.58828 27.7791 7.69236 27.8185C7.79644 27.8579 7.90525 27.8768 8.01721 27.8768C8.11971 27.8768 8.20328 27.8642 8.26636 27.8421C8.33102 27.8185 8.37675 27.7869 8.40828 27.7459C8.43825 27.7034 8.45402 27.6561 8.45402 27.604C8.45402 27.5441 8.43352 27.4952 8.39409 27.4574C8.35467 27.4195 8.30421 27.3911 8.23955 27.3691C8.17805 27.3454 8.10867 27.3249 8.03298 27.3091C7.95728 27.2934 7.88002 27.2729 7.80275 27.2508C7.72705 27.2271 7.65767 27.1972 7.59302 27.1625C7.53152 27.1278 7.48105 27.0805 7.44163 27.0206C7.40221 26.9606 7.38328 26.8818 7.38328 26.7887C7.38328 26.6957 7.40694 26.6153 7.45425 26.5396C7.50313 26.4623 7.57725 26.4008 7.67659 26.3551C7.77752 26.3078 7.90525 26.2841 8.05979 26.2841C8.16229 26.2841 8.26478 26.2983 8.36571 26.3251C8.46663 26.3519 8.55336 26.3914 8.62748 26.4418L8.5439 26.6437C8.46821 26.5932 8.38778 26.5569 8.30421 26.5349C8.22063 26.5112 8.13863 26.5002 8.05979 26.5002C7.96044 26.5002 7.87844 26.5128 7.81536 26.538C7.75229 26.5632 7.70498 26.5964 7.67344 26.6389C7.64505 26.6815 7.63086 26.7288 7.63086 26.7809C7.63086 26.8439 7.64978 26.8928 7.68921 26.9291C7.73021 26.9669 7.78067 26.9953 7.84375 27.0174C7.9084 27.0395 7.97778 27.06 8.05348 27.0773C8.12917 27.0947 8.20486 27.1136 8.28055 27.1357C8.35782 27.1577 8.42721 27.1861 8.49029 27.2208C8.55494 27.2555 8.6054 27.3028 8.64482 27.3627C8.68425 27.4227 8.70317 27.4968 8.70317 27.5898C8.70317 27.6829 8.67952 27.7617 8.63063 27.839C8.58175 27.9147 8.50605 27.9762 8.40355 28.0235C8.30263 28.0692 8.1749 28.0913 8.02036 28.0913L8.01878 28.0897ZM9.59886 28.085C9.48375 28.085 9.38282 28.0645 9.29609 28.0219C9.21094 27.9793 9.14313 27.9162 9.09425 27.8295C9.04694 27.7428 9.02329 27.6324 9.02329 27.5015V26.732H9.26613V27.4731C9.26613 27.604 9.29767 27.7034 9.35917 27.768C9.42382 27.8342 9.51213 27.8658 9.62725 27.8658C9.71082 27.8658 9.78494 27.8484 9.84644 27.8153C9.90794 27.7806 9.95682 27.7302 9.98994 27.6639C10.0231 27.5961 10.0404 27.5157 10.0404 27.4211V26.7304H10.2832V28.0676H10.053V27.7065L10.0909 27.8027C10.0467 27.891 9.98205 27.9604 9.89375 28.0093C9.80702 28.0582 9.70767 28.0818 9.59886 28.0818V28.085ZM11.1269 28.085C11.0165 28.085 10.9093 28.0692 10.8084 28.0392C10.709 28.0093 10.6302 27.9714 10.5734 27.9289L10.6743 27.7365C10.7311 27.7743 10.8021 27.8074 10.8856 27.8342C10.9692 27.8611 11.0559 27.8752 11.1427 27.8752C11.2546 27.8752 11.3366 27.8595 11.3855 27.8279C11.436 27.7964 11.4612 27.7507 11.4612 27.6939C11.4612 27.6513 11.4454 27.6198 11.4155 27.5961C11.3855 27.5725 11.3445 27.5551 11.2941 27.5425C11.2452 27.5299 11.19 27.5204 11.1301 27.5126C11.0701 27.5031 11.0086 27.4905 10.9487 27.4779C10.8888 27.4621 10.832 27.4432 10.7816 27.4179C10.7311 27.3911 10.6901 27.3549 10.6601 27.3091C10.6302 27.2618 10.6144 27.2003 10.6144 27.1231C10.6144 27.0458 10.6365 26.9717 10.6822 26.9117C10.7279 26.8518 10.791 26.8045 10.8746 26.773C10.9582 26.7399 11.0575 26.7225 11.1726 26.7225C11.2594 26.7225 11.3477 26.7336 11.4376 26.7556C11.529 26.7761 11.6031 26.8061 11.6599 26.8439L11.5558 27.0363C11.4959 26.9953 11.4328 26.9685 11.3666 26.9527C11.3004 26.937 11.2357 26.9307 11.1695 26.9307C11.0638 26.9307 10.985 26.948 10.9329 26.9843C10.8809 27.0174 10.8541 27.0616 10.8541 27.1152C10.8541 27.1609 10.8699 27.1956 10.8998 27.2208C10.9314 27.2445 10.9724 27.2634 11.0212 27.276C11.0717 27.2902 11.1269 27.3012 11.1884 27.3107C11.2483 27.3186 11.3098 27.3312 11.3697 27.3454C11.4297 27.3596 11.4849 27.3785 11.5337 27.4037C11.5842 27.429 11.6252 27.4637 11.6552 27.5094C11.6867 27.5551 11.7025 27.6151 11.7025 27.6908C11.7025 27.7712 11.6788 27.8421 11.6315 27.9005C11.5842 27.9588 11.518 28.0061 11.4328 28.0392C11.3477 28.0708 11.2452 28.0866 11.1253 28.0866L11.1269 28.085ZM12.4673 28.085C12.3332 28.085 12.2292 28.0487 12.1551 27.9762C12.0809 27.9036 12.0447 27.7996 12.0447 27.6655V26.4387H12.2875V27.6545C12.2875 27.727 12.3049 27.7822 12.3411 27.8216C12.3774 27.8595 12.431 27.88 12.4972 27.88C12.5729 27.88 12.636 27.8595 12.6865 27.8169L12.7622 27.9904C12.7259 28.0219 12.6802 28.0456 12.6281 28.0613C12.5777 28.0771 12.5241 28.0834 12.4689 28.0834L12.4673 28.085ZM11.816 26.9322V26.7336H12.6691V26.9322H11.816ZM13.8818 28.0708V27.7885L13.8692 27.7349V27.2524C13.8692 27.1499 13.8392 27.071 13.7777 27.0158C13.7194 26.9591 13.6295 26.9307 13.5096 26.9307C13.4308 26.9307 13.3535 26.9433 13.2778 26.9717C13.2021 26.9969 13.1375 27.0316 13.0854 27.0757L12.9845 26.8944C13.0539 26.8392 13.1359 26.7966 13.2321 26.7682C13.3299 26.7383 13.4308 26.7225 13.538 26.7225C13.7209 26.7225 13.8629 26.7667 13.9622 26.8566C14.0616 26.9464 14.1104 27.0821 14.1104 27.265V28.0724H13.8802L13.8818 28.0708ZM13.4434 28.0866C13.3441 28.0866 13.2573 28.0692 13.1816 28.0361C13.1075 28.003 13.0507 27.9557 13.0097 27.8973C12.9687 27.8374 12.9498 27.768 12.9498 27.6923C12.9498 27.6166 12.9672 27.5536 13.0003 27.4952C13.035 27.4369 13.0917 27.3896 13.169 27.3533C13.2479 27.3186 13.3535 27.2997 13.4876 27.2997H13.9117V27.4731H13.4986C13.3772 27.4731 13.2952 27.4936 13.2542 27.5331C13.2116 27.5741 13.1911 27.6229 13.1911 27.6797C13.1911 27.7459 13.2179 27.798 13.2699 27.839C13.322 27.8768 13.3945 27.8973 13.4876 27.8973C13.5806 27.8973 13.6579 27.8768 13.7241 27.8374C13.7935 27.7964 13.8424 27.7381 13.8723 27.6608L13.9196 27.8279C13.8881 27.9068 13.8313 27.9699 13.7509 28.0172C13.6705 28.0629 13.568 28.085 13.445 28.085L13.4434 28.0866ZM14.5599 28.0708V26.7336H14.8027V28.0708H14.5599ZM14.6813 26.4765C14.634 26.4765 14.5946 26.4607 14.563 26.4308C14.5331 26.4008 14.5173 26.363 14.5173 26.3204C14.5173 26.2778 14.5331 26.2368 14.563 26.2069C14.5946 26.1769 14.634 26.1611 14.6813 26.1611C14.7286 26.1611 14.7664 26.1769 14.798 26.2069C14.8295 26.2352 14.8453 26.2715 14.8453 26.3157C14.8453 26.3598 14.8295 26.3992 14.7996 26.4324C14.7696 26.4623 14.7302 26.4781 14.6813 26.4781V26.4765ZM15.9791 26.7209C16.0879 26.7209 16.1841 26.7414 16.2661 26.784C16.3497 26.8266 16.4159 26.8897 16.4632 26.9764C16.5105 27.0631 16.5342 27.1704 16.5342 27.3012V28.0708H16.2913V27.3296C16.2913 27.2003 16.2598 27.1026 16.1951 27.0363C16.1321 26.9701 16.0437 26.9386 15.9302 26.9386C15.8451 26.9386 15.7694 26.9559 15.7063 26.989C15.6416 27.0221 15.5927 27.0726 15.5581 27.1372C15.5249 27.2035 15.5076 27.2839 15.5076 27.3817V28.0708H15.2647V26.7336H15.4966V27.0947L15.4587 26.9985C15.5029 26.9118 15.5691 26.8424 15.6606 26.7935C15.752 26.7446 15.8577 26.7209 15.9791 26.7209ZM17.8131 28.0708V27.7885L17.8004 27.7349V27.2524C17.8004 27.1499 17.7705 27.071 17.709 27.0158C17.6506 26.9591 17.5607 26.9307 17.4409 26.9307C17.3621 26.9307 17.2848 26.9433 17.2091 26.9717C17.1334 26.9969 17.0687 27.0316 17.0167 27.0757L16.9158 26.8944C16.9852 26.8392 17.0672 26.7966 17.1634 26.7682C17.2611 26.7383 17.3621 26.7225 17.4693 26.7225C17.6522 26.7225 17.7941 26.7667 17.8935 26.8566C17.9928 26.9464 18.0417 27.0821 18.0417 27.265V28.0724H17.8115L17.8131 28.0708ZM17.3747 28.0866C17.2753 28.0866 17.1886 28.0692 17.1129 28.0361C17.0388 28.003 16.982 27.9557 16.941 27.8973C16.9 27.8374 16.8811 27.768 16.8811 27.6923C16.8811 27.6166 16.8984 27.5536 16.9316 27.4952C16.9662 27.4369 17.023 27.3896 17.1003 27.3533C17.1791 27.3186 17.2848 27.2997 17.4188 27.2997H17.843V27.4731H17.4299C17.3084 27.4731 17.2264 27.4936 17.1854 27.5331C17.1429 27.5741 17.1224 27.6229 17.1224 27.6797C17.1224 27.7459 17.1492 27.798 17.2012 27.839C17.2532 27.8768 17.3258 27.8973 17.4188 27.8973C17.5119 27.8973 17.5891 27.8768 17.6554 27.8374C17.7247 27.7964 17.7736 27.7381 17.8036 27.6608L17.8509 27.8279C17.8194 27.9068 17.7626 27.9699 17.6822 28.0172C17.6017 28.0629 17.4992 28.085 17.3762 28.085L17.3747 28.0866ZM19.2007 28.0866C19.0872 28.0866 18.9831 28.0613 18.8901 28.0109C18.7986 27.9588 18.7277 27.8816 18.6725 27.7806C18.6204 27.6797 18.5936 27.5536 18.5936 27.4022C18.5936 27.2508 18.6204 27.1246 18.6741 27.0237C18.7292 26.9228 18.8034 26.8471 18.8932 26.7966C18.9863 26.7462 19.0872 26.7209 19.1992 26.7209C19.3301 26.7209 19.4467 26.7493 19.5477 26.8061C19.6486 26.8629 19.729 26.9433 19.7874 27.0458C19.8457 27.1467 19.8757 27.265 19.8757 27.4022C19.8757 27.5394 19.8457 27.6576 19.7874 27.7601C19.729 27.8626 19.6486 27.9431 19.5477 27.9998C19.4467 28.0566 19.3301 28.085 19.1992 28.085L19.2007 28.0866ZM18.4911 28.0708V26.199H18.734V27.0899L18.7087 27.4006L18.7245 27.7112V28.0724H18.4927L18.4911 28.0708ZM19.1802 27.8737C19.2654 27.8737 19.3427 27.8547 19.4105 27.8153C19.4799 27.7775 19.5335 27.7223 19.5713 27.6513C19.6123 27.5788 19.6312 27.4952 19.6312 27.4022C19.6312 27.3091 19.6107 27.224 19.5713 27.1546C19.5335 27.0836 19.4783 27.03 19.4105 26.9906C19.3427 26.9527 19.267 26.9322 19.1802 26.9322C19.0935 26.9322 19.0194 26.9512 18.95 26.9906C18.8822 27.03 18.8286 27.0836 18.7892 27.1546C18.7513 27.224 18.7308 27.306 18.7308 27.4022C18.7308 27.4984 18.7497 27.5788 18.7892 27.6513C18.8302 27.7223 18.8838 27.7775 18.95 27.8153C19.0194 27.8532 19.0951 27.8737 19.1802 27.8737ZM20.2116 28.0708V26.7336H20.4544V28.0708H20.2116ZM20.333 26.4765C20.2857 26.4765 20.2462 26.4607 20.2147 26.4308C20.1847 26.4008 20.169 26.363 20.169 26.3204C20.169 26.2778 20.1847 26.2368 20.2147 26.2069C20.2462 26.1769 20.2857 26.1611 20.333 26.1611C20.3803 26.1611 20.4181 26.1769 20.4497 26.2069C20.4812 26.2352 20.497 26.2715 20.497 26.3157C20.497 26.3598 20.4812 26.3992 20.4512 26.4324C20.4213 26.4623 20.3819 26.4781 20.333 26.4781V26.4765ZM20.9164 28.0708V26.199H21.1593V28.0708H20.9164ZM21.6213 28.0708V26.7336H21.8642V28.0708H21.6213ZM21.7427 26.4765C21.6954 26.4765 21.656 26.4607 21.6245 26.4308C21.5945 26.4008 21.5787 26.363 21.5787 26.3204C21.5787 26.2778 21.5945 26.2368 21.6245 26.2069C21.656 26.1769 21.6954 26.1611 21.7427 26.1611C21.7901 26.1611 21.8279 26.1769 21.8594 26.2069C21.891 26.2352 21.9067 26.2715 21.9067 26.3157C21.9067 26.3598 21.891 26.3992 21.861 26.4324C21.8311 26.4623 21.7916 26.4781 21.7427 26.4781V26.4765ZM22.7851 28.0866C22.6511 28.0866 22.547 28.0503 22.4729 27.9777C22.3987 27.9052 22.3625 27.8011 22.3625 27.6671V26.4402H22.6053V27.6561C22.6053 27.7286 22.6227 27.7838 22.6589 27.8232C22.6952 27.8611 22.7488 27.8816 22.8151 27.8816C22.8907 27.8816 22.9538 27.8611 23.0043 27.8185L23.08 27.9919C23.0421 28.0235 22.998 28.0471 22.9459 28.0629C22.8955 28.0787 22.8419 28.085 22.7867 28.085L22.7851 28.0866ZM22.1338 26.9338V26.7351H22.9869V26.9338H22.1338ZM23.4032 28.577C23.3402 28.577 23.2771 28.5659 23.2172 28.5439C23.1572 28.5234 23.1052 28.4934 23.0611 28.4524L23.1651 28.2711C23.1982 28.3026 23.2361 28.3278 23.2755 28.3436C23.3165 28.3609 23.3591 28.3688 23.4048 28.3688C23.4632 28.3688 23.5121 28.3531 23.5515 28.3231C23.5909 28.2931 23.6272 28.2395 23.6603 28.1622L23.7439 27.9777L23.7691 27.9478L24.2942 26.7336H24.5307L23.8826 28.2048C23.8448 28.2994 23.8006 28.3736 23.7517 28.4272C23.7044 28.4808 23.6524 28.5186 23.5956 28.5407C23.5389 28.5644 23.4758 28.5754 23.4064 28.5754L23.4032 28.577ZM23.7218 28.1149L23.1115 26.7351H23.3638L23.8842 27.9257L23.7234 28.1149H23.7218ZM25.4674 28.0724V26.3062H26.1566C26.3111 26.3062 26.4436 26.3299 26.5524 26.3787C26.6612 26.4276 26.7463 26.4986 26.8047 26.5901C26.863 26.6831 26.893 26.7935 26.893 26.9212C26.893 27.0489 26.863 27.1593 26.8047 27.2524C26.7463 27.3438 26.6612 27.4132 26.5524 27.4621C26.4436 27.511 26.3111 27.5346 26.1566 27.5346H25.6062L25.7197 27.4179V28.0708H25.4674V28.0724ZM26.6486 28.0724L26.1991 27.4321H26.4688L26.9229 28.0724H26.6486ZM25.7197 27.4447L25.6062 27.3217H26.1487C26.3095 27.3217 26.4325 27.2871 26.5145 27.2177C26.5981 27.1467 26.6407 27.0489 26.6407 26.9228C26.6407 26.7966 26.5981 26.6989 26.5145 26.6295C26.4325 26.5601 26.3095 26.5254 26.1487 26.5254H25.6062L25.7197 26.3992V27.4432V27.4447ZM28.0836 28.0724V27.7901L28.0709 27.7365V27.2539C28.0709 27.1514 28.041 27.0726 27.9795 27.0174C27.9211 26.9606 27.8312 26.9322 27.7114 26.9322C27.6326 26.9322 27.5553 26.9449 27.4796 26.9732C27.4039 26.9985 27.3392 27.0332 27.2872 27.0773L27.1863 26.896C27.2557 26.8408 27.3377 26.7982 27.4339 26.7698C27.5316 26.7399 27.6326 26.7241 27.7398 26.7241C27.9227 26.7241 28.0646 26.7683 28.164 26.8581C28.2633 26.948 28.3122 27.0836 28.3122 27.2666V28.0739H28.082L28.0836 28.0724ZM27.6452 28.0881C27.5458 28.0881 27.4591 28.0708 27.3834 28.0377C27.3093 28.0046 27.2525 27.9572 27.2115 27.8989C27.1705 27.839 27.1516 27.7696 27.1516 27.6939C27.1516 27.6182 27.1689 27.5551 27.2021 27.4968C27.2367 27.4384 27.2935 27.3911 27.3708 27.3549C27.4496 27.3202 27.5553 27.3012 27.6893 27.3012H28.1135V27.4747H27.7004C27.5789 27.4747 27.4969 27.4952 27.4559 27.5346C27.4134 27.5756 27.3929 27.6245 27.3929 27.6813C27.3929 27.7475 27.4197 27.7996 27.4717 27.8406C27.5237 27.8784 27.5963 27.8989 27.6893 27.8989C27.7824 27.8989 27.8596 27.8784 27.9259 27.839C27.9952 27.798 28.0441 27.7396 28.0741 27.6624L28.1214 27.8295C28.0899 27.9084 28.0331 27.9714 27.9527 28.0187C27.8722 28.0645 27.7697 28.0866 27.6467 28.0866L27.6452 28.0881ZM29.2205 28.0881C29.0865 28.0881 28.9824 28.0519 28.9083 27.9793C28.8342 27.9068 28.7979 27.8027 28.7979 27.6687V26.4418H29.0407V27.6576C29.0407 27.7302 29.0581 27.7854 29.0944 27.8248C29.1322 27.8626 29.1842 27.8831 29.2505 27.8831C29.3262 27.8831 29.3892 27.8626 29.4397 27.8201L29.5154 27.9935C29.4776 28.0251 29.4334 28.0487 29.3814 28.0645C29.3309 28.0802 29.2773 28.0866 29.2221 28.0866L29.2205 28.0881ZM28.5692 26.9354V26.7367H29.4224V26.9354H28.5692ZM29.8056 28.0739V26.7367H30.0484V28.0739H29.8056ZM29.927 26.4797C29.8797 26.4797 29.8402 26.4639 29.8087 26.4339C29.7787 26.404 29.763 26.3661 29.763 26.3236C29.763 26.281 29.7787 26.24 29.8087 26.21C29.8402 26.1801 29.8797 26.1643 29.927 26.1643C29.9743 26.1643 30.0121 26.1801 30.0437 26.21C30.0752 26.2384 30.091 26.2747 30.091 26.3188C30.091 26.363 30.0752 26.4024 30.0452 26.4355C30.0153 26.4655 29.9759 26.4812 29.927 26.4812V26.4797ZM31.2248 26.7241C31.3336 26.7241 31.4298 26.7446 31.5118 26.7872C31.5954 26.8297 31.6616 26.8928 31.7089 26.9796C31.7562 27.0663 31.7799 27.1735 31.7799 27.3044V28.0739H31.537V27.3328C31.537 27.2035 31.5055 27.1057 31.4408 27.0395C31.3777 26.9732 31.2894 26.9417 31.1759 26.9417C31.0907 26.9417 31.0151 26.9591 30.952 26.9922C30.8889 27.0253 30.8384 27.0757 30.8037 27.1404C30.7706 27.2066 30.7533 27.2871 30.7533 27.3848V28.0739H30.5104V26.7367H30.7422V27.0978L30.7044 27.0016C30.7486 26.9149 30.8148 26.8455 30.9062 26.7966C30.9977 26.7477 31.1034 26.7241 31.2248 26.7241ZM32.8127 28.5786C32.6897 28.5786 32.5699 28.5612 32.4548 28.5249C32.3412 28.4918 32.2466 28.4429 32.1741 28.3783L32.2908 28.1922C32.3539 28.2458 32.4296 28.2884 32.521 28.3184C32.6125 28.3499 32.7071 28.3657 32.8064 28.3657C32.9641 28.3657 33.0808 28.3278 33.1549 28.2553C33.2291 28.1812 33.2653 28.0692 33.2653 27.9178V27.6356L33.2906 27.3706L33.2779 27.1026V26.7367H33.5082V27.8926C33.5082 28.1276 33.4498 28.301 33.3316 28.413C33.2133 28.5234 33.0414 28.5801 32.8143 28.5801L32.8127 28.5786ZM32.7828 28.0187C32.6535 28.0187 32.5368 27.9919 32.4343 27.9383C32.3334 27.8831 32.2529 27.8059 32.1914 27.7081C32.1331 27.6103 32.1031 27.4984 32.1031 27.3706C32.1031 27.2429 32.1331 27.1278 32.1914 27.0332C32.2514 26.9354 32.3334 26.8597 32.4343 26.8061C32.5368 26.7525 32.6535 26.7257 32.7828 26.7257C32.8979 26.7257 33.002 26.7493 33.095 26.7966C33.1896 26.8424 33.2637 26.9133 33.3189 27.0079C33.3757 27.1041 33.4041 27.2256 33.4041 27.3706C33.4041 27.5157 33.3757 27.6356 33.3189 27.7317C33.2637 27.8279 33.1881 27.9005 33.095 27.9494C33.0004 27.9967 32.8963 28.0203 32.7828 28.0203V28.0187ZM32.8112 27.8074C32.9011 27.8074 32.9799 27.7885 33.0477 27.7523C33.1171 27.7144 33.1707 27.6639 33.2086 27.5977C33.2496 27.5315 33.2685 27.4558 33.2685 27.3706C33.2685 27.2855 33.248 27.2098 33.2086 27.1436C33.1691 27.0773 33.1155 27.0269 33.0477 26.9922C32.9783 26.9543 32.8995 26.937 32.8112 26.937C32.7229 26.937 32.6424 26.9559 32.5715 26.9922C32.5021 27.0269 32.4485 27.0773 32.4075 27.1436C32.3681 27.2098 32.3491 27.2855 32.3491 27.3706C32.3491 27.4558 32.3681 27.5315 32.4075 27.5977C32.4485 27.6639 32.5021 27.7144 32.5715 27.7523C32.6424 27.7901 32.7229 27.8074 32.8112 27.8074Z" fill="#4B4B4A"/>
<path d="M8.65434 20.4433C8.64173 20.5363 8.59284 20.5962 8.50611 20.5962H5.57934C5.66607 21.257 6.26846 21.7269 6.95757 21.7158C7.32657 21.7158 7.67192 21.5976 7.9668 21.3752C8.04092 21.3169 8.11503 21.3169 8.1513 21.4099L8.37207 21.7868C8.42096 21.8578 8.3973 21.9524 8.33423 21.9997C8.05196 22.2236 7.58361 22.4475 6.85823 22.4475C5.62823 22.4475 4.73096 21.5518 4.73096 20.3408C4.73096 19.1297 5.56673 18.2324 6.76046 18.2324C7.89111 18.2324 8.65434 19.0918 8.65434 20.3045V20.4464V20.4433ZM5.59196 19.9718H7.8438V19.9607C7.7823 19.3599 7.3518 18.9483 6.78569 18.9483C6.16911 18.9483 5.71496 19.3489 5.59196 19.9718Z" fill="#4B4B4A"/>
<path d="M31.3477 22.2221L31.3603 18.4533C31.3603 18.3602 31.4092 18.3003 31.4959 18.3003H32.073C32.1598 18.3003 32.2087 18.3586 32.2087 18.4533V22.2221C32.2087 22.3167 32.1598 22.3751 32.073 22.3751H31.4959C31.3981 22.3751 31.3492 22.3293 31.3492 22.2221H31.3477Z" fill="#4B4B4A"/>
<path d="M31.3477 17.4172L31.3603 16.8053C31.3603 16.7107 31.4092 16.6523 31.4959 16.6523H32.073C32.1598 16.6523 32.2087 16.7107 32.2087 16.8053V17.4172C32.2087 17.5102 32.1598 17.5701 32.073 17.5701H31.4959C31.3981 17.5591 31.3492 17.5118 31.3492 17.4172H31.3477Z" fill="#4B4B4A"/>
<path d="M32.9496 22.0327C32.8629 21.9854 32.8502 21.9145 32.9007 21.8325L33.1341 21.4193C33.1593 21.361 33.2334 21.3247 33.2934 21.3483C33.306 21.3483 33.3186 21.3594 33.3312 21.372C33.6876 21.607 34.107 21.7363 34.536 21.7363C34.9649 21.7363 35.2377 21.5707 35.2377 21.2648C35.2377 20.9825 35.0295 20.8406 34.4019 20.6766C33.6261 20.4873 33 20.1704 33 19.4513C33 18.7322 33.615 18.2497 34.5502 18.2497C35.0422 18.2386 35.5215 18.3664 35.952 18.614C36.0262 18.6486 36.0514 18.7322 36.0135 18.8032C36.0135 18.8142 36.0009 18.8142 36.0009 18.8268L35.7928 19.24C35.7675 19.2983 35.6934 19.333 35.6335 19.311C35.6209 19.311 35.6083 19.2999 35.5957 19.2873C35.2755 19.0981 34.9065 18.9924 34.5249 18.9924C34.1433 18.9924 33.8847 19.1217 33.8847 19.4292C33.8847 19.6878 34.1307 19.7935 34.7946 19.9701C35.6304 20.194 36.1239 20.4889 36.1239 21.2411C36.1239 21.9933 35.5089 22.49 34.4997 22.49C33.9462 22.4553 33.4164 22.3134 32.9496 22.0311V22.0327Z" fill="#4B4B4A"/>
<path d="M9.146 20.3486C9.146 19.147 10.0811 18.2292 11.2859 18.2292C11.7416 18.2182 12.1831 18.3349 12.5648 18.5825C12.6389 18.6298 12.6641 18.7354 12.6136 18.8064L12.3929 19.2069C12.3676 19.2653 12.2935 19.3 12.2336 19.2779C12.221 19.2779 12.2084 19.2668 12.1958 19.2542C11.9498 19.1139 11.6801 19.0303 11.3852 19.0413C10.5747 19.0413 10.0196 19.5948 10.0196 20.3597C10.0196 21.1245 10.5731 21.6543 11.349 21.6543C11.6438 21.6653 11.9387 21.596 12.1847 21.454C12.2715 21.3957 12.333 21.4193 12.3692 21.4887L12.6026 21.9129C12.6515 21.9839 12.6278 22.0659 12.5537 22.1132C12.1847 22.3482 11.7432 22.4664 11.2859 22.4538C10.0322 22.4538 9.146 21.536 9.146 20.347V20.3486Z" fill="#4B4B4A"/>
<path d="M12.9341 20.3484C12.9341 19.1357 13.8818 18.229 15.0377 18.229C16.1936 18.229 17.1287 19.1357 17.1287 20.3484C17.1287 21.561 16.181 22.4567 15.0377 22.4567C13.8944 22.4567 12.9341 21.55 12.9341 20.3484ZM16.2551 20.3484C16.2551 19.6057 15.7016 19.0301 15.0251 19.0301C14.3486 19.0301 13.7951 19.6072 13.7951 20.3484C13.7951 21.0895 14.3486 21.643 15.0251 21.643C15.7016 21.643 16.2551 21.0785 16.2551 20.3484Z" fill="#4B4B4A"/>
<path d="M25.6298 18.4531V22.2219C25.6298 22.315 25.5809 22.3749 25.4815 22.3749H25.0148C24.9407 22.3749 24.8792 22.3166 24.8792 22.2456V22.2346L24.8539 21.7284C24.5338 22.1872 23.9929 22.4585 23.4158 22.4474C22.334 22.4474 21.5093 21.5517 21.5093 20.3391C21.5093 19.1264 22.345 18.2323 23.4158 18.2323C23.9567 18.2213 24.4739 18.4452 24.8177 18.8568L24.8429 18.4562C24.8429 18.3853 24.9044 18.3143 24.9785 18.3143H25.4831C25.5667 18.3143 25.6298 18.3601 25.6298 18.4547V18.4531ZM24.8177 20.3375C24.805 19.5837 24.3257 19.0302 23.5877 19.0302C22.9112 19.0302 22.3703 19.5837 22.3703 20.3375C22.3703 21.0913 22.9112 21.6448 23.5877 21.6448C24.3146 21.6448 24.8177 21.0913 24.8177 20.3375Z" fill="#4B4B4A"/>
<path d="M30.4267 16.8053V22.2346C30.4393 22.3056 30.3778 22.3765 30.3037 22.3876H29.8479C29.7738 22.3876 29.7013 22.3403 29.7013 22.2709V22.2472L29.676 21.7521C29.3433 22.211 28.8024 22.4822 28.2253 22.4712C27.1435 22.4712 26.3062 21.5755 26.3062 20.3644C26.3062 19.1533 27.1183 18.256 28.2 18.256C28.7409 18.245 29.2582 18.491 29.5783 18.9042V16.8195C29.5657 16.7485 29.6272 16.6775 29.7013 16.6665H30.28C30.3541 16.6665 30.4282 16.7249 30.4282 16.7958C30.4282 16.7832 30.4282 16.7958 30.4282 16.8068L30.4267 16.8053ZM29.6145 20.3376C29.6145 19.5838 29.1225 19.0303 28.3845 19.0303C27.708 19.0303 27.1672 19.5838 27.1672 20.3376C27.1672 21.0914 27.708 21.6448 28.3845 21.6448C29.1099 21.6448 29.6145 21.104 29.6145 20.3376Z" fill="#4B4B4A"/>
<path d="M18.1615 18.4183C18.1362 18.3474 18.0747 18.3016 18.0022 18.3127H17.362C17.2626 18.3127 17.2153 18.3836 17.2626 18.4893L17.5953 19.232C17.731 19.5726 18.0747 19.7966 18.4563 19.8092H18.7386L18.1615 18.4183Z" fill="#3DB54A"/>
<path d="M21.2506 18.3237H20.6482C20.5741 18.3237 20.5016 18.371 20.4763 18.442L19.3457 21.2678L19.199 20.9146C19.0634 20.574 18.7307 20.3501 18.3506 20.3375H18.0684L18.9294 22.3039C18.9546 22.3748 19.0161 22.4206 19.0886 22.4095H19.5317C19.6059 22.4206 19.68 22.3748 19.691 22.3039L21.3515 18.5114C21.4004 18.4073 21.3515 18.3253 21.2522 18.3253L21.2506 18.3237Z" fill="#4B4B4A"/>
<path d="M37.5008 10.16L38.8396 7.34519C38.9642 7.08342 38.7734 6.78223 38.4832 6.78223H3.61903C3.4708 6.78223 3.33518 6.8658 3.26738 6.99669L0.0441455 13.3028C-0.089893 13.5646 0.100915 13.8768 0.395799 13.8768H38.4848C38.775 13.8768 38.9658 13.5756 38.8412 13.3138L37.5024 10.499C37.4519 10.3918 37.4519 10.2672 37.5024 10.16H37.5008Z" fill="url(#paint2_linear_760_25)"/>
<path d="M5.00537 11.5116V9.19357H6.1376C6.42933 9.19357 6.64695 9.24876 6.7936 9.35915C6.94183 9.46953 7.01595 9.61461 7.01595 9.79595C7.01595 9.91738 6.98599 10.023 6.92606 10.1145C6.86614 10.2028 6.78414 10.2706 6.68164 10.3195C6.57914 10.3684 6.45929 10.392 6.32368 10.392L6.38676 10.2564C6.53183 10.2564 6.66114 10.2801 6.77468 10.329C6.88664 10.3747 6.97495 10.4456 7.03645 10.5371C7.1011 10.6301 7.13264 10.7437 7.13264 10.8777C7.13264 11.0764 7.05379 11.2325 6.89768 11.3445C6.74156 11.4549 6.50976 11.5101 6.20541 11.5101H5.00695L5.00537 11.5116ZM5.53837 11.108H6.16441C6.30318 11.108 6.40883 11.0859 6.47979 11.0417C6.55233 10.996 6.5886 10.9219 6.5886 10.8225C6.5886 10.7232 6.55233 10.6538 6.47979 10.6065C6.40883 10.5576 6.30476 10.534 6.16441 10.534H5.49895V10.1429H6.07137C6.20226 10.1429 6.3016 10.1208 6.36941 10.0766C6.44037 10.0309 6.47506 9.95995 6.47506 9.86849C6.47506 9.77703 6.44037 9.7108 6.36941 9.66665C6.3016 9.62091 6.20226 9.59726 6.07137 9.59726H5.53837V11.108ZM7.53791 11.5116V9.19357H8.54083C8.74899 9.19357 8.92718 9.22826 9.07699 9.29607C9.22679 9.3623 9.34349 9.45849 9.42391 9.58465C9.50591 9.7108 9.54691 9.86061 9.54691 10.0356C9.54691 10.2107 9.50591 10.3573 9.42391 10.4835C9.34191 10.6065 9.22679 10.7027 9.07699 10.7689C8.92718 10.8351 8.74741 10.8683 8.54083 10.8683H7.83595L8.07406 10.6333V11.5148H7.53791V11.5116ZM9.01233 11.5116L8.4336 10.6711H9.00603L9.59264 11.5116H9.01391H9.01233ZM8.07564 10.6901L7.83753 10.4378H8.51245C8.67803 10.4378 8.80103 10.4031 8.88303 10.3321C8.96503 10.2596 9.00603 10.1602 9.00603 10.0341C9.00603 9.90792 8.96503 9.80699 8.88303 9.73603C8.80103 9.66507 8.67803 9.63038 8.51245 9.63038H7.83753L8.07564 9.37492V10.6901ZM11.1002 11.5511C10.9173 11.5511 10.7469 11.5211 10.5908 11.4612C10.4363 11.4013 10.3023 11.3177 10.1871 11.2089C10.0752 11.1001 9.98687 10.9739 9.92222 10.8288C9.86072 10.6838 9.82918 10.5245 9.82918 10.3526C9.82918 10.1807 9.86072 10.0215 9.92222 9.87638C9.98687 9.7313 10.0752 9.60357 10.1903 9.49476C10.3054 9.38595 10.4394 9.30238 10.594 9.24245C10.7485 9.18253 10.9157 9.15257 11.097 9.15257C11.2784 9.15257 11.4487 9.18253 11.6001 9.24245C11.7546 9.30238 11.8886 9.38595 12.0006 9.49476C12.1157 9.60357 12.204 9.72972 12.2687 9.87638C12.3333 10.0199 12.3649 10.1791 12.3649 10.3526C12.3649 10.5261 12.3333 10.6853 12.2687 10.832C12.204 10.9771 12.1157 11.1048 12.0006 11.2136C11.8886 11.3193 11.7546 11.4028 11.6001 11.4612C11.4471 11.5211 11.2815 11.5511 11.1002 11.5511ZM11.097 11.0938C11.2011 11.0938 11.2957 11.0764 11.3824 11.0401C11.4708 11.0055 11.548 10.9534 11.6143 10.8872C11.6805 10.821 11.7309 10.7421 11.7672 10.6522C11.8051 10.5623 11.824 10.4614 11.824 10.351C11.824 10.2406 11.8051 10.1397 11.7672 10.0498C11.7325 9.95995 11.6805 9.88111 11.6143 9.81488C11.5496 9.74865 11.4739 9.69818 11.3856 9.66192C11.2973 9.62722 11.2011 9.6083 11.097 9.6083C10.9929 9.6083 10.8968 9.62565 10.8084 9.66192C10.7217 9.69661 10.646 9.74865 10.5798 9.81488C10.5136 9.88111 10.4615 9.95995 10.4237 10.0498C10.389 10.1397 10.3701 10.2406 10.3701 10.351C10.3701 10.4614 10.3874 10.5592 10.4237 10.6522C10.4615 10.7421 10.512 10.821 10.5766 10.8872C10.6429 10.9534 10.7201 11.0039 10.8084 11.0401C10.8968 11.0748 10.9929 11.0938 11.097 11.0938ZM12.7686 11.5116V9.19357H13.2117L14.5789 10.862H14.3628V9.19357H14.8927V11.5116H14.4527L13.0824 9.84326H13.2968V11.5116H12.767H12.7686ZM15.2932 11.5116V11.1631L16.7266 9.43484L16.7929 9.63038H15.3184V9.19357H17.2691V9.54207L15.8388 11.2704L15.7726 11.0748H17.3196V11.5116H15.2932ZM18.1569 10.1271H19.2734V10.545H18.1569V10.1271ZM18.1963 11.0811H19.4579V11.5116H17.6633V9.19357H19.4153V9.62407H18.1963V11.0811ZM20.8471 12.1535V9.05322H21.142V12.1535H20.8471ZM23.1857 11.5116V9.48215H22.3909V9.19357H24.3085V9.48215H23.5137V11.5116H23.1857ZM25.1931 11.5321C25.0165 11.5321 24.8604 11.4927 24.7232 11.4155C24.586 11.3382 24.4788 11.2325 24.3984 11.0969C24.3195 10.9597 24.2785 10.8052 24.2785 10.6333C24.2785 10.4614 24.3179 10.3037 24.3984 10.1697C24.4772 10.0356 24.586 9.92999 24.7232 9.8543C24.8604 9.77703 25.0165 9.73761 25.1931 9.73761C25.3698 9.73761 25.5227 9.77545 25.6599 9.8543C25.7987 9.92999 25.9075 10.0341 25.9848 10.1697C26.0636 10.3021 26.1046 10.4567 26.1046 10.6333C26.1046 10.8099 26.0652 10.9629 25.9848 11.0969C25.9075 11.231 25.7987 11.3382 25.6599 11.4155C25.5227 11.4927 25.3666 11.5321 25.1931 11.5321ZM25.1931 11.2546C25.3051 11.2546 25.406 11.2294 25.4943 11.1789C25.5842 11.1285 25.6552 11.0559 25.7056 10.9645C25.7561 10.8698 25.7813 10.761 25.7813 10.6365C25.7813 10.5119 25.7561 10.4031 25.7056 10.3116C25.6552 10.2186 25.5842 10.1476 25.4943 10.0971C25.406 10.0467 25.3051 10.0215 25.1931 10.0215C25.0812 10.0215 24.9803 10.0467 24.892 10.0971C24.8036 10.1476 24.7327 10.2201 24.6806 10.3116C24.627 10.4015 24.6018 10.5103 24.6018 10.6365C24.6018 10.7626 24.6286 10.8698 24.6806 10.9645C24.7343 11.0575 24.8036 11.1285 24.892 11.1789C24.9803 11.2294 25.0812 11.2546 25.1931 11.2546ZM27.4734 11.5321C27.3283 11.5321 27.1943 11.499 27.0728 11.4328C26.953 11.365 26.8584 11.2641 26.7843 11.1316C26.7133 10.9991 26.6786 10.8336 26.6786 10.6349C26.6786 10.4362 26.7133 10.2706 26.7811 10.1381C26.8521 10.0057 26.9467 9.90634 27.0665 9.84011C27.1879 9.77388 27.3236 9.74076 27.4734 9.74076C27.6453 9.74076 27.7982 9.77861 27.9307 9.85272C28.0631 9.92841 28.1672 10.0325 28.2445 10.1665C28.3218 10.299 28.3612 10.4551 28.3612 10.6333C28.3612 10.8115 28.3233 10.9692 28.2445 11.1032C28.1672 11.2373 28.0631 11.3429 27.9307 11.4186C27.7982 11.4943 27.6453 11.5306 27.4734 11.5306V11.5321ZM26.543 12.155V9.75811H26.8473V10.2312L26.8268 10.638L26.8599 11.0449V12.1535H26.5414L26.543 12.155ZM27.4466 11.2546C27.5585 11.2546 27.6594 11.2294 27.7478 11.1789C27.8376 11.1285 27.9086 11.0559 27.9591 10.9645C28.0127 10.8698 28.0379 10.761 28.0379 10.6365C28.0379 10.5119 28.0111 10.4031 27.9591 10.3116C27.9086 10.2186 27.8376 10.1476 27.7478 10.0971C27.6594 10.0467 27.5585 10.0215 27.4466 10.0215C27.3346 10.0215 27.2353 10.0467 27.1454 10.0971C27.0571 10.1476 26.9861 10.2201 26.9341 10.3116C26.8836 10.4015 26.8584 10.5103 26.8584 10.6365C26.8584 10.7626 26.8836 10.8698 26.9341 10.9645C26.9877 11.0575 27.0571 11.1285 27.1454 11.1789C27.2353 11.2294 27.3362 11.2546 27.4466 11.2546ZM30.2693 11.5526C30.1084 11.5526 29.9476 11.5321 29.7899 11.4896C29.6306 11.4454 29.4966 11.3839 29.3862 11.3035L29.5943 10.8935C29.6826 10.9581 29.7851 11.0086 29.9018 11.0465C30.0185 11.0843 30.1368 11.1032 30.2566 11.1032C30.3907 11.1032 30.4979 11.0764 30.5752 11.0244C30.6524 10.9723 30.6919 10.8982 30.6919 10.8052C30.6919 10.7121 30.6572 10.6475 30.5894 10.597C30.5216 10.5466 30.4112 10.5213 30.2582 10.5213H30.0138V10.1665L30.6588 9.43484L30.7187 9.62722H29.5029V9.19672H31.1255V9.54522L30.4837 10.2769L30.2125 10.1208H30.3686C30.654 10.1208 30.8685 10.1855 31.0151 10.3132C31.1602 10.4409 31.2343 10.6065 31.2343 10.8068C31.2343 10.9376 31.1996 11.0591 31.1318 11.1742C31.064 11.2861 30.9584 11.3792 30.8164 11.4486C30.6745 11.5195 30.4948 11.5542 30.274 11.5542L30.2693 11.5526ZM32.2325 11.5526C32.0717 11.5526 31.9108 11.5321 31.7531 11.4896C31.597 11.4454 31.4614 11.3839 31.3494 11.3035L31.5608 10.8935C31.6491 10.9581 31.75 11.0086 31.8651 11.0465C31.9818 11.0843 32.1001 11.1032 32.2199 11.1032C32.3539 11.1032 32.4612 11.0764 32.5384 11.0244C32.6157 10.9708 32.6551 10.8966 32.6551 10.802C32.6551 10.7421 32.6394 10.6901 32.6094 10.6428C32.5779 10.597 32.5227 10.5608 32.4438 10.5371C32.3666 10.5135 32.2578 10.5008 32.1158 10.5008H31.5229L31.6428 9.19672H33.0573V9.62722H31.8351L32.1127 9.3828L32.0307 10.3132L31.7531 10.0688H32.2436C32.4738 10.0688 32.6567 10.1003 32.7971 10.165C32.939 10.2265 33.0415 10.3116 33.1046 10.4204C33.1692 10.5292 33.2008 10.6506 33.2008 10.7878C33.2008 10.925 33.1661 11.0512 33.0983 11.1695C33.0304 11.2846 32.9232 11.3776 32.7797 11.4517C32.6378 11.5227 32.458 11.5574 32.2373 11.5574L32.2325 11.5526ZM33.7164 11.5132L35.2996 9.19515H35.6939L34.1106 11.5132H33.7164ZM33.9183 10.4472C33.8063 10.4472 33.7069 10.422 33.6202 10.3715C33.5335 10.3179 33.4657 10.2438 33.4152 10.1492C33.3663 10.0514 33.3427 9.93788 33.3427 9.80857C33.3427 9.67926 33.3663 9.56572 33.4152 9.47111C33.4657 9.37649 33.5351 9.30238 33.6202 9.24876C33.7069 9.19515 33.8063 9.16992 33.9183 9.16992C34.0302 9.16992 34.1296 9.19672 34.2163 9.24876C34.303 9.30238 34.3693 9.37649 34.4181 9.47111C34.467 9.56572 34.4907 9.67926 34.4907 9.80857C34.4907 9.93788 34.467 10.053 34.4181 10.1492C34.3693 10.2438 34.3014 10.3179 34.2163 10.3715C34.1296 10.422 34.0302 10.4472 33.9183 10.4472ZM33.9183 10.176C33.9908 10.176 34.0491 10.146 34.0933 10.0861C34.1374 10.0246 34.1595 9.93157 34.1595 9.80857C34.1595 9.68557 34.1374 9.59253 34.0933 9.53418C34.0491 9.47268 33.9908 9.44115 33.9183 9.44115C33.8457 9.44115 33.7889 9.47268 33.7432 9.53418C33.6991 9.59411 33.677 9.68557 33.677 9.80857C33.677 9.93157 33.6991 10.0215 33.7432 10.083C33.7889 10.1445 33.8473 10.176 33.9183 10.176ZM35.4904 11.54C35.3801 11.54 35.2807 11.5148 35.1924 11.4643C35.1057 11.4107 35.0394 11.3366 34.9906 11.242C34.9417 11.1442 34.918 11.0307 34.918 10.9014C34.918 10.7721 34.9417 10.6585 34.9906 10.5639C35.0394 10.4693 35.1073 10.3952 35.1924 10.3416C35.2807 10.288 35.3801 10.2627 35.4904 10.2627C35.6008 10.2627 35.7065 10.2895 35.7916 10.3416C35.8784 10.3952 35.9446 10.4693 35.9935 10.5639C36.0424 10.6585 36.066 10.7721 36.066 10.9014C36.066 11.0307 36.0424 11.1458 35.9935 11.242C35.9446 11.3366 35.8768 11.4107 35.7916 11.4643C35.7049 11.5148 35.6056 11.54 35.4904 11.54ZM35.4904 11.2688C35.563 11.2688 35.6213 11.2388 35.6655 11.1789C35.7096 11.1174 35.7317 11.0244 35.7317 10.9014C35.7317 10.7784 35.7096 10.6885 35.6655 10.627C35.6213 10.5655 35.563 10.534 35.4904 10.534C35.4179 10.534 35.3611 10.5655 35.3154 10.627C35.2713 10.6869 35.2492 10.7784 35.2492 10.9014C35.2492 11.0244 35.2713 11.1174 35.3154 11.1789C35.3611 11.2388 35.4195 11.2688 35.4904 11.2688Z" fill="#4B4B4A"/>
<path d="M15.5982 32.3638C15.5036 32.3638 15.4162 32.3465 15.3362 32.3118C15.2576 32.2758 15.1929 32.2252 15.1422 32.1598L15.3222 31.9438C15.3609 31.9945 15.4016 32.0332 15.4442 32.0598C15.4869 32.0852 15.5329 32.0978 15.5822 32.0978C15.7142 32.0978 15.7802 32.0205 15.7802 31.8658V31.1998H15.2882V30.9398H16.1022V31.8478C16.1022 32.0212 16.0596 32.1505 15.9742 32.2358C15.8889 32.3212 15.7636 32.3638 15.5982 32.3638ZM16.209 32.3398L16.833 30.9398H17.153L17.779 32.3398H17.439L16.927 31.1038H17.055L16.541 32.3398H16.209ZM16.521 32.0398L16.607 31.7938H17.327L17.415 32.0398H16.521ZM17.9242 32.3398V30.9398H18.1922L19.0182 31.9478H18.8882V30.9398H19.2082V32.3398H18.9422L18.1142 31.3318H18.2442V32.3398H17.9242ZM20.0059 32.3398V32.1298L20.5459 31.6198C20.5885 31.5812 20.6199 31.5465 20.6399 31.5158C20.6599 31.4852 20.6732 31.4572 20.6799 31.4318C20.6879 31.4065 20.6919 31.3832 20.6919 31.3618C20.6919 31.3058 20.6725 31.2632 20.6339 31.2338C20.5965 31.2032 20.5412 31.1878 20.4679 31.1878C20.4092 31.1878 20.3545 31.1992 20.3039 31.2218C20.2545 31.2445 20.2125 31.2798 20.1779 31.3278L19.9419 31.1758C19.9952 31.0958 20.0699 31.0325 20.1659 30.9858C20.2619 30.9392 20.3725 30.9158 20.4979 30.9158C20.6019 30.9158 20.6925 30.9332 20.7699 30.9678C20.8485 31.0012 20.9092 31.0485 20.9519 31.1098C20.9959 31.1712 21.0179 31.2445 21.0179 31.3298C21.0179 31.3752 21.0119 31.4205 20.9999 31.4658C20.9892 31.5098 20.9665 31.5565 20.9319 31.6058C20.8985 31.6552 20.8492 31.7105 20.7839 31.7718L20.3359 32.1938L20.2739 32.0758H21.0639V32.3398H20.0059ZM21.7976 32.3638C21.6829 32.3638 21.5802 32.3358 21.4896 32.2798C21.3989 32.2225 21.3276 32.1398 21.2756 32.0318C21.2236 31.9238 21.1976 31.7932 21.1976 31.6398C21.1976 31.4865 21.2236 31.3558 21.2756 31.2478C21.3276 31.1398 21.3989 31.0578 21.4896 31.0018C21.5802 30.9445 21.6829 30.9158 21.7976 30.9158C21.9136 30.9158 22.0162 30.9445 22.1056 31.0018C22.1962 31.0578 22.2676 31.1398 22.3196 31.2478C22.3716 31.3558 22.3976 31.4865 22.3976 31.6398C22.3976 31.7932 22.3716 31.9238 22.3196 32.0318C22.2676 32.1398 22.1962 32.2225 22.1056 32.2798C22.0162 32.3358 21.9136 32.3638 21.7976 32.3638ZM21.7976 32.0898C21.8522 32.0898 21.8996 32.0745 21.9396 32.0438C21.9809 32.0132 22.0129 31.9645 22.0356 31.8978C22.0596 31.8312 22.0716 31.7452 22.0716 31.6398C22.0716 31.5345 22.0596 31.4485 22.0356 31.3818C22.0129 31.3152 21.9809 31.2665 21.9396 31.2358C21.8996 31.2052 21.8522 31.1898 21.7976 31.1898C21.7442 31.1898 21.6969 31.2052 21.6556 31.2358C21.6156 31.2665 21.5836 31.3152 21.5596 31.3818C21.5369 31.4485 21.5256 31.5345 21.5256 31.6398C21.5256 31.7452 21.5369 31.8312 21.5596 31.8978C21.5836 31.9645 21.6156 32.0132 21.6556 32.0438C21.6969 32.0745 21.7442 32.0898 21.7976 32.0898ZM22.5352 32.3398V32.1298L23.0752 31.6198C23.1178 31.5812 23.1492 31.5465 23.1692 31.5158C23.1892 31.4852 23.2025 31.4572 23.2092 31.4318C23.2172 31.4065 23.2212 31.3832 23.2212 31.3618C23.2212 31.3058 23.2018 31.2632 23.1632 31.2338C23.1258 31.2032 23.0705 31.1878 22.9972 31.1878C22.9385 31.1878 22.8838 31.1992 22.8332 31.2218C22.7838 31.2445 22.7418 31.2798 22.7072 31.3278L22.4712 31.1758C22.5245 31.0958 22.5992 31.0325 22.6952 30.9858C22.7912 30.9392 22.9018 30.9158 23.0272 30.9158C23.1312 30.9158 23.2218 30.9332 23.2992 30.9678C23.3778 31.0012 23.4385 31.0485 23.4812 31.1098C23.5252 31.1712 23.5472 31.2445 23.5472 31.3298C23.5472 31.3752 23.5412 31.4205 23.5292 31.4658C23.5185 31.5098 23.4958 31.5565 23.4612 31.6058C23.4278 31.6552 23.3785 31.7105 23.3132 31.7718L22.8652 32.1938L22.8032 32.0758H23.5932V32.3398H22.5352ZM23.6894 32.0458V31.8278L24.3494 30.9398H24.6894L24.0434 31.8278L23.8854 31.7818H24.9874V32.0458H23.6894ZM24.4434 32.3398V32.0458L24.4534 31.7818V31.5198H24.7594V32.3398H24.4434Z" fill="#4B4B4A"/>
</g>
<defs>
<linearGradient id="paint0_linear_760_25" x1="0" y1="20.5" x2="41" y2="20.5" gradientUnits="userSpaceOnUse">
<stop stop-color="#E1B090"/>
<stop offset="0.12" stop-color="#C29375"/>
<stop offset="0.19" stop-color="#C69779"/>
<stop offset="0.26" stop-color="#D1A486"/>
<stop offset="0.34" stop-color="#E3BA9C"/>
<stop offset="0.4" stop-color="#F6D0B2"/>
<stop offset="0.91" stop-color="#B17F60"/>
</linearGradient>
<linearGradient id="paint1_linear_760_25" x1="11.354" y1="29.8825" x2="29.6463" y2="29.8825" gradientUnits="userSpaceOnUse">
<stop stop-color="#E1B090"/>
<stop offset="0.12" stop-color="#C29375"/>
<stop offset="0.19" stop-color="#C69779"/>
<stop offset="0.91" stop-color="#B17F60"/>
</linearGradient>
<linearGradient id="paint2_linear_760_25" x1="3.5528" y1="20.6528" x2="31.5716" y2="4.12196" gradientUnits="userSpaceOnUse">
<stop stop-color="#B17F60"/>
<stop offset="0.18" stop-color="#E2B191"/>
<stop offset="0.96" stop-color="#F6D0B2"/>
</linearGradient>
<clipPath id="clip0_760_25">
<rect width="41" height="41" fill="white"/>
</clipPath>
</defs>
</svg>
