<svg width="48" height="55" viewBox="0 0 48 55" fill="none" xmlns="http://www.w3.org/2000/svg">
<path d="M20.5 45.8333V34.8333C20.5 33.8609 20.1137 32.9282 19.4261 32.2406C18.7384 31.553 17.8058 31.1667 16.8333 31.1667H13.1667C12.1942 31.1667 11.2616 31.553 10.5739 32.2406C9.88631 32.9282 9.5 33.8609 9.5 34.8333V45.8333C9.5 46.8058 9.88631 47.7384 10.5739 48.4261C11.2616 49.1137 12.1942 49.5 13.1667 49.5H16.8333C17.8058 49.5 18.7384 49.1137 19.4261 48.4261C20.1137 47.7384 20.5 46.8058 20.5 45.8333ZM20.5 45.8333V27.5C20.5 26.5275 20.8863 25.5949 21.5739 24.9073C22.2616 24.2196 23.1942 23.8333 24.1667 23.8333H27.8333C28.8058 23.8333 29.7384 24.2196 30.4261 24.9073C31.1137 25.5949 31.5 26.5275 31.5 27.5V45.8333M20.5 45.8333C20.5 46.8058 20.8863 47.7384 21.5739 48.4261C22.2616 49.1137 23.1942 49.5 24.1667 49.5H27.8333C28.8058 49.5 29.7384 49.1137 30.4261 48.4261C31.1137 47.7384 31.5 46.8058 31.5 45.8333M31.5 45.8333V20.1667C31.5 19.1942 31.8863 18.2616 32.5739 17.5739C33.2616 16.8863 34.1942 16.5 35.1667 16.5H38.8333C39.8058 16.5 40.7384 16.8863 41.4261 17.5739C42.1137 18.2616 42.5 19.1942 42.5 20.1667V45.8333C42.5 46.8058 42.1137 47.7384 41.4261 48.4261C40.7384 49.1137 39.8058 49.5 38.8333 49.5H35.1667C34.1942 49.5 33.2616 49.1137 32.5739 48.4261C31.8863 47.7384 31.5 46.8058 31.5 45.8333Z" stroke="#42E886" stroke-width="2" stroke-linecap="round" stroke-linejoin="round"/>
<path d="M18.5857 10.7958L24.1875 11.5831M24.1875 11.5831L23.4002 17.1849M24.1875 11.5831L9.81204 22.4157" stroke="#42E886" stroke-width="2" stroke-linecap="round" stroke-linejoin="round"/>
</svg>
