<svg width="48" height="55" viewBox="0 0 48 55" fill="none" xmlns="http://www.w3.org/2000/svg">
<path d="M19.4259 44.7594C20.1135 44.0718 20.4998 43.1391 20.4998 42.1667C20.4998 41.1942 20.1135 40.2616 19.4259 39.5739C18.7383 38.8863 17.8056 38.5 16.8332 38.5C15.8607 38.5 14.9281 38.8863 14.2404 39.5739C13.5528 40.2616 13.1665 41.1942 13.1665 42.1667C13.1665 43.1391 13.5528 44.0718 14.2404 44.7594C14.9281 45.447 15.8607 45.8333 16.8332 45.8333C17.8056 45.8333 18.7383 45.447 19.4259 44.7594Z" stroke="#42E886"/>
<path d="M37.7592 44.7594C38.4469 44.0718 38.8332 43.1391 38.8332 42.1667C38.8332 41.1942 38.4469 40.2616 37.7592 39.5739C37.0716 38.8863 36.139 38.5 35.1665 38.5C34.194 38.5 33.2614 38.8863 32.5738 39.5739C31.8861 40.2616 31.4998 41.1942 31.4998 42.1667C31.4998 43.1391 31.8861 44.0718 32.5738 44.7594C33.2614 45.447 34.194 45.8333 35.1665 45.8333C36.139 45.8333 37.0716 45.447 37.7592 44.7594Z" stroke="#42E886"/>
<path d="M27.8333 40.3332V21.9998C27.8333 21.5136 27.6402 21.0473 27.2964 20.7035C26.9525 20.3597 26.4862 20.1665 26 20.1665H11.3333C10.8471 20.1665 10.3808 20.3597 10.037 20.7035C9.69315 21.0473 9.5 21.5136 9.5 21.9998V40.3332C9.5 40.8194 9.69315 41.2857 10.037 41.6295C10.3808 41.9733 10.8471 42.1665 11.3333 42.1665H13.1667M27.8333 40.3332C27.8333 40.8194 27.6402 41.2857 27.2964 41.6295C26.9525 41.9733 26.4862 42.1665 26 42.1665H20.5M27.8333 40.3332V25.6665C27.8333 25.1803 28.0265 24.714 28.3703 24.3701C28.7141 24.0263 29.1804 23.8332 29.6667 23.8332H34.4077C34.8939 23.8333 35.3601 24.0265 35.7038 24.3703L41.9628 30.6293C42.3067 30.9731 42.4999 31.4393 42.5 31.9255V40.3332C42.5 40.8194 42.3068 41.2857 41.963 41.6295C41.6192 41.9733 41.1529 42.1665 40.6667 42.1665H38.8333M27.8333 40.3332C27.8333 40.8194 28.0265 41.2857 28.3703 41.6295C28.7141 41.9733 29.1804 42.1665 29.6667 42.1665H31.5M13.1667 42.1665C13.1667 43.139 13.553 44.0716 14.2406 44.7592C14.9282 45.4469 15.8609 45.8332 16.8333 45.8332C17.8058 45.8332 18.7384 45.4469 19.4261 44.7592C20.1137 44.0716 20.5 43.139 20.5 42.1665M13.1667 42.1665C13.1667 41.194 13.553 40.2614 14.2406 39.5738C14.9282 38.8861 15.8609 38.4998 16.8333 38.4998C17.8058 38.4998 18.7384 38.8861 19.4261 39.5738C20.1137 40.2614 20.5 41.194 20.5 42.1665M38.8333 42.1665C38.8333 43.139 38.447 44.0716 37.7594 44.7592C37.0718 45.4469 36.1391 45.8332 35.1667 45.8332C34.1942 45.8332 33.2616 45.4469 32.5739 44.7592C31.8863 44.0716 31.5 43.139 31.5 42.1665M38.8333 42.1665C38.8333 41.194 38.447 40.2614 37.7594 39.5738C37.0718 38.8861 36.1391 38.4998 35.1667 38.4998C34.1942 38.4998 33.2616 38.8861 32.5739 39.5738C31.8863 40.2614 31.5 41.194 31.5 42.1665" stroke="#42E886" stroke-width="2" stroke-linecap="round" stroke-linejoin="round"/>
</svg>
